<svg width="64" height="64" viewBox="0 0 64 64" fill="none" xmlns="http://www.w3.org/2000/svg">
<path fill-rule="evenodd" clip-rule="evenodd" d="M50.152 10.6417L31.72 0L13.288 10.6417V24.7942L1 31.8887V53.1722L19.432 63.8139L31.6902 56.7366L31.72 56.7538L31.7498 56.7366L44.008 63.8139L62.44 53.1722V31.8887L50.152 24.7942V10.6417ZM60.52 32.9972L48.232 25.9027V11.7502L31.72 2.21703L15.208 11.7502V25.9028L2.92 32.9972V52.0636L19.432 61.5968L31.6902 54.5196L31.72 54.5368L31.7498 54.5196L44.008 61.5968L60.52 52.0636V32.9972Z" fill="url(#paint0_linear_615_427)"/>
<path fill-rule="evenodd" clip-rule="evenodd" d="M50.1521 24.8307L31.7201 14.189L13.2881 24.8307V46.1141L31.7201 56.7558L50.1521 46.1141V24.8307ZM15.2081 25.9392L31.7201 16.406L48.2321 25.9392V45.0056L31.7201 54.5388L15.2081 45.0056V25.9392ZM32.6792 25.3512V27.5129C33.9471 26.1812 35.7371 25.3512 37.7209 25.3512H41.8562V29.4865C41.8562 31.4548 41.0392 33.2323 39.7257 34.4983H41.8562V45.5936H32.6792H30.7609H21.5839V36.4465V34.4983V25.3512H32.6792ZM23.5039 27.2712V34.5265H30.7593V27.2712H23.5039ZM37.7209 27.2712H39.9362V29.4865C39.9362 32.27 37.6797 34.5265 34.8962 34.5265H32.6809V32.3112C32.6809 29.5277 34.9374 27.2712 37.7209 27.2712ZM23.5039 43.6736H30.7593V36.4183H23.5039V43.6736ZM32.6809 43.6736V36.4183H39.9362V43.6736H32.6809Z" fill="url(#paint1_linear_615_427)"/>
<defs>
<linearGradient id="paint0_linear_615_427" x1="31.72" y1="95.7208" x2="95.488" y2="34.3249" gradientUnits="userSpaceOnUse">
<stop stop-color="#0FA4B7"/>
<stop offset="0.494757" stop-color="#1DC1C7"/>
<stop offset="1" stop-color="#2BE0D7"/>
</linearGradient>
<linearGradient id="paint1_linear_615_427" x1="28.4374" y1="99.2464" x2="98.7613" y2="44.9372" gradientUnits="userSpaceOnUse">
<stop stop-color="#0FA4B7"/>
<stop offset="0.494757" stop-color="#1DC1C7"/>
<stop offset="1" stop-color="#2BE0D7"/>
</linearGradient>
</defs>
</svg>
